<svg width="29" height="29" viewBox="0 0 29 29" fill="none" xmlns="http://www.w3.org/2000/svg">
<path d="M9.19784 4.7705V6.6507H27.0597V10.3726L24.9739 16.9918H8.60628L6.25603 0.0677109H0.736938V1.94791H4.61885L6.9691 18.872H26.3528L28.9399 10.6618V4.7705H9.19784Z" fill="black"/>
<path d="M10.1957 20.7701C9.19873 20.7713 8.24292 21.1678 7.53795 21.8728C6.83299 22.5777 6.43644 23.5335 6.4353 24.5305C6.4353 25.5278 6.83149 26.4843 7.5367 27.1895C8.24191 27.8947 9.19838 28.2909 10.1957 28.2909C11.193 28.2909 12.1495 27.8947 12.8547 27.1895C13.5599 26.4843 13.9561 25.5278 13.9561 24.5305C13.955 23.5335 13.5584 22.5777 12.8535 21.8728C12.1485 21.1678 11.1927 20.7712 10.1957 20.7701ZM10.1957 26.4107C9.82383 26.4107 9.46032 26.3004 9.15112 26.0938C8.84192 25.8872 8.60093 25.5936 8.45863 25.25C8.31632 24.9065 8.27908 24.5284 8.35163 24.1637C8.42418 23.799 8.60325 23.464 8.8662 23.201C9.12915 22.9381 9.46417 22.759 9.82889 22.6864C10.1936 22.6139 10.5717 22.6511 10.9152 22.7934C11.2588 22.9357 11.5524 23.1767 11.759 23.4859C11.9656 23.7951 12.0759 24.1586 12.0759 24.5305C12.0753 25.029 11.877 25.5069 11.5246 25.8594C11.1721 26.2118 10.6942 26.4101 10.1957 26.4107Z" fill="black"/>
<path d="M23.3572 20.7701C22.3602 20.7713 21.4044 21.1678 20.6995 21.8728C19.9945 22.5777 19.5979 23.5335 19.5968 24.5305C19.5968 25.5278 19.993 26.4843 20.6982 27.1895C21.4034 27.8947 22.3599 28.2909 23.3572 28.2909C24.3545 28.2909 25.311 27.8947 26.0162 27.1895C26.7214 26.4843 27.1176 25.5278 27.1176 24.5305C27.1165 23.5335 26.7199 22.5777 26.015 21.8728C25.31 21.1678 24.3542 20.7712 23.3572 20.7701ZM23.3572 26.4107C22.9853 26.4107 22.6218 26.3004 22.3126 26.0938C22.0034 25.8872 21.7624 25.5936 21.6201 25.25C21.4778 24.9065 21.4406 24.5284 21.5131 24.1637C21.5857 23.799 21.7647 23.464 22.0277 23.201C22.2907 22.9381 22.6257 22.759 22.9904 22.6864C23.3551 22.6139 23.7332 22.6511 24.0767 22.7934C24.4203 22.9357 24.7139 23.1767 24.9205 23.4859C25.1271 23.7951 25.2374 24.1586 25.2374 24.5305C25.2368 25.029 25.0385 25.5069 24.6861 25.8594C24.3336 26.2118 23.8557 26.4101 23.3572 26.4107Z" fill="black"/>
</svg>
