<svg width="29" height="29" viewBox="0 0 29 29" fill="none" xmlns="http://www.w3.org/2000/svg">
<path d="M19.8165 15.1851C21.2058 14.092 22.2199 12.5931 22.7177 10.8968C23.2154 9.20057 23.1721 7.39135 22.5937 5.72086C22.0154 4.05037 20.9307 2.60168 19.4907 1.57635C18.0506 0.551017 16.3268 2.28882e-05 14.559 2.28882e-05C12.7912 2.28882e-05 11.0674 0.551017 9.62734 1.57635C8.1873 2.60168 7.10264 4.05037 6.52427 5.72086C5.9459 7.39135 5.90258 9.20057 6.40034 10.8968C6.8981 12.5931 7.91218 14.092 9.30151 15.1851C6.92087 16.1389 4.84368 17.7208 3.29138 19.7622C1.73908 21.8037 0.769867 24.2281 0.487063 26.7771C0.466593 26.9632 0.482977 27.1515 0.535281 27.3312C0.587585 27.511 0.674785 27.6787 0.791901 27.8248C1.02843 28.1198 1.37245 28.3087 1.74829 28.3501C2.12414 28.3914 2.50101 28.2818 2.796 28.0452C3.091 27.8087 3.27995 27.4647 3.32129 27.0888C3.63247 24.3187 4.95336 21.7602 7.0316 19.9024C9.10985 18.0445 11.7997 17.0175 14.5873 17.0175C17.3749 17.0175 20.0648 18.0445 22.1431 19.9024C24.2213 21.7602 25.5422 24.3187 25.8534 27.0888C25.8919 27.4371 26.0581 27.7586 26.3198 27.9916C26.5815 28.2245 26.9202 28.3522 27.2705 28.3501H27.4264C27.7979 28.3073 28.1374 28.1195 28.371 27.8275C28.6046 27.5355 28.7133 27.163 28.6734 26.7912C28.3893 24.2351 27.4149 21.8044 25.8546 19.7598C24.2943 17.7152 22.207 16.1338 19.8165 15.1851ZM14.559 14.1789C13.4379 14.1789 12.3419 13.8465 11.4098 13.2236C10.4776 12.6008 9.75106 11.7155 9.32203 10.6797C8.893 9.64394 8.78074 8.5042 8.99946 7.40463C9.21818 6.30506 9.75805 5.29504 10.5508 4.50229C11.3435 3.70954 12.3536 3.16967 13.4531 2.95096C14.5527 2.73224 15.6924 2.84449 16.7282 3.27352C17.764 3.70255 18.6493 4.42909 19.2721 5.36127C19.895 6.29344 20.2275 7.38938 20.2275 8.51049C20.2275 10.0139 19.6302 11.4557 18.5672 12.5187C17.5042 13.5817 16.0624 14.1789 14.559 14.1789Z" fill="black"/>
</svg>
